<svg width="23" height="23" viewBox="0 0 23 23" fill="none" xmlns="http://www.w3.org/2000/svg" class="t-socialIcon-0-1-97"><path fill-rule="evenodd" clip-rule="evenodd" d="M19.019 5.36425C19.019 6.1265 18.4015 6.74413 17.6394 6.74413C16.8773 6.74413 16.2598 6.1265 16.2598 5.36425C16.2598 4.60201 16.8773 3.98438 17.6394 3.98438C18.4005 3.98438 19.018 4.601 19.019 5.36325V5.36425ZM11.4997 15.3376C9.38206 15.3376 7.66504 13.6213 7.66504 11.5033C7.66504 9.38526 9.38206 7.66895 11.4997 7.66895C13.6164 7.66895 15.3334 9.38526 15.3334 11.5033C15.3334 13.6213 13.6164 15.3376 11.4997 15.3376V15.3376ZM11.5 5.59484C8.23867 5.59484 5.59487 8.24011 5.59487 11.502C5.59487 14.7639 8.23867 17.4082 11.5 17.4082C14.7613 17.4082 17.4051 14.7639 17.4051 11.502C17.4051 8.24011 14.7603 5.59685 11.5 5.59685V5.59484ZM11.5 0C8.37523 0 7.98564 0.0130556 6.75862 0.0692953C5.80472 0.0883766 4.85986 0.269147 3.96721 0.603572C3.19907 0.892804 2.50423 1.34573 1.92888 1.93123C1.34349 2.50568 0.89064 3.20164 0.601458 3.96891C0.267092 4.86272 0.087357 5.80574 0.0682791 6.76081C0.0120492 7.98804 0 8.3797 0 11.503C0 14.6263 0.0120492 15.018 0.0692832 16.2452C0.087357 17.1993 0.268096 18.1433 0.601458 19.0371C0.89064 19.8044 1.34349 20.4993 1.92788 21.0748C2.50423 21.6583 3.19907 22.1092 3.96721 22.3964C4.85986 22.7309 5.80472 22.9116 6.75862 22.9307C7.98564 22.9869 8.37623 23 11.5 23C14.6228 23 15.0144 22.9869 16.2404 22.9307C17.1953 22.9116 18.1391 22.7309 19.0328 22.3964C20.5781 21.7989 21.7991 20.5767 22.3955 19.0321C22.7309 18.1383 22.9116 17.1943 22.9307 16.2402C22.9859 15.013 23 14.6213 23 11.498C23 8.37468 22.9859 7.98301 22.9307 6.75579C22.9116 5.80172 22.7309 4.8577 22.3955 3.96289C22.1074 3.19662 21.6545 2.50065 21.0701 1.92621C20.4948 1.34272 19.7989 0.890796 19.0328 0.603572C18.1391 0.269147 17.1953 0.0883766 16.2404 0.0692953C15.0154 0.0140599 14.6238 0.00100428 11.5 0.00100428V0ZM11.4998 2.07425C14.5693 2.07425 14.9338 2.0863 16.1468 2.14153C16.8757 2.15057 17.5987 2.28414 18.2825 2.53722C18.7825 2.721 19.2334 3.01526 19.6049 3.39789C19.9865 3.76947 20.2807 4.2214 20.4634 4.72153C20.7164 5.40544 20.851 6.12852 20.86 6.85763C20.9152 8.0708 20.9263 8.43435 20.9263 11.5054C20.9263 14.5765 20.9152 14.9401 20.86 16.1532C20.851 16.8833 20.7164 17.6044 20.4634 18.2893C20.0778 19.2926 19.2846 20.085 18.2815 20.4726C17.5967 20.7257 16.8747 20.8603 16.1458 20.8683C14.9328 20.9236 14.5683 20.9356 11.4988 20.9356C8.42821 20.9356 8.06372 20.9236 6.85177 20.8683C6.12279 20.8583 5.40084 20.7237 4.71906 20.4696C4.21901 20.2848 3.76817 19.9906 3.39565 19.609C3.01509 19.2374 2.72089 18.7855 2.53613 18.2863C2.2821 17.6024 2.14855 16.8793 2.13951 16.1502C2.08529 14.9371 2.07324 14.5735 2.07324 11.5024C2.07324 8.43133 2.08529 8.06778 2.13951 6.85462C2.14855 6.12651 2.2821 5.40444 2.53513 4.72153C2.71988 4.2214 3.01409 3.76947 3.39464 3.39889C3.76717 3.01626 4.21901 2.72201 4.71906 2.53722C5.40185 2.28414 6.1238 2.14957 6.85278 2.14053C8.06573 2.08529 8.42922 2.07324 11.4998 2.07324V2.07425Z" fill="#CACACA"></path></svg>