<svg width="40" height="40" viewBox="0 0 40 40" fill="none" xmlns="http://www.w3.org/2000/svg"><path d="M9.67254 7.40789C9.34301 7.79751 9.17487 8.29835 9.20254 8.80789V30.9279C9.16852 31.4383 9.33744 31.9414 9.67254 32.3279L9.74254 32.4079L22.1325 20.0179V19.7179L9.74254 7.33789L9.67254 7.40789Z" fill="url(#paint0_linear_21485_166848)"></path><path d="M26.2328 24.1479L22.1328 20.0179V19.7179L26.2328 15.5879L26.3228 15.6479L31.2328 18.4279C32.6328 19.2179 32.6328 20.5179 31.2328 21.3179L26.3428 24.0979L26.2328 24.1479Z" fill="url(#paint1_linear_21485_166848)"></path><path d="M26.3529 24.0872L22.1329 19.8672L9.67285 32.3272C10.2559 32.8462 11.1261 32.8756 11.7429 32.3972L26.3529 24.0872Z" fill="url(#paint2_linear_21485_166848)"></path><path d="M26.3529 15.6476L11.7429 7.34765C11.1298 6.86237 10.2567 6.88768 9.67285 7.40765L22.1329 19.8676L26.3529 15.6476Z" fill="url(#paint3_linear_21485_166848)"></path><path opacity="0.2" d="M26.2329 23.998L11.7429 32.248C11.151 32.6947 10.3347 32.6947 9.74285 32.248L9.67285 32.318L9.74285 32.398C10.3347 32.8447 11.151 32.8447 11.7429 32.398L26.3529 24.088L26.2329 23.998Z" fill="black"></path><path opacity="0.12" d="M9.67287 32.1873C9.35166 31.7907 9.19425 31.2863 9.23287 30.7773V30.9273C9.19884 31.4377 9.36776 31.9409 9.70287 32.3273L9.77287 32.2573L9.67287 32.1873Z" fill="black"></path><path opacity="0.12" d="M31.2324 21.1672L26.2324 23.9972L26.3224 24.0872L31.2324 21.3072C31.8228 21.0575 32.2295 20.5051 32.2924 19.8672C32.1656 20.4443 31.7722 20.9268 31.2324 21.1672Z" fill="black"></path><path opacity="0.25" d="M11.7431 7.48717L31.2331 18.5672C31.7729 18.8075 32.1663 19.2901 32.2931 19.8672C32.2302 19.2293 31.8235 18.6768 31.2331 18.4272L11.7431 7.34717C10.3531 6.54717 9.20312 7.20717 9.20312 8.80717V8.95717C9.23312 7.35717 10.3531 6.69717 11.7431 7.48717Z" fill="white"></path><defs><linearGradient id="paint0_linear_21485_166848" x1="16.7039" y1="-7.68409" x2="-3.13684" y2="-2.40285" gradientUnits="userSpaceOnUse"><stop stop-color="#00A0FF"></stop><stop offset="0.01" stop-color="#00A1FF"></stop><stop offset="0.26" stop-color="#00BEFF"></stop><stop offset="0.51" stop-color="#00D2FF"></stop><stop offset="0.76" stop-color="#00DFFF"></stop><stop offset="1" stop-color="#00E3FF"></stop></linearGradient><linearGradient id="paint1_linear_21485_166848" x1="33.0628" y1="9.66758" x2="8.87281" y2="9.66758" gradientUnits="userSpaceOnUse"><stop stop-color="#FFE000"></stop><stop offset="0.41" stop-color="#FFBD00"></stop><stop offset="0.78" stop-color="#FFA500"></stop><stop offset="1" stop-color="#FF9C00"></stop></linearGradient><linearGradient id="paint2_linear_21485_166848" x1="9.32036" y1="13.3866" x2="-6.64113" y2="40.1858" gradientUnits="userSpaceOnUse"><stop stop-color="#FF3A44"></stop><stop offset="1" stop-color="#C31162"></stop></linearGradient><linearGradient id="paint3_linear_21485_166848" x1="-0.0522221" y1="3.96657" x2="7.07008" y2="15.9344" gradientUnits="userSpaceOnUse"><stop stop-color="#32A071"></stop><stop offset="0.07" stop-color="#2DA771"></stop><stop offset="0.48" stop-color="#15CF74"></stop><stop offset="0.8" stop-color="#06E775"></stop><stop offset="1" stop-color="#00F076"></stop></linearGradient></defs></svg>