<svg width="40" height="40" viewBox="0 0 40 40" fill="none" xmlns="http://www.w3.org/2000/svg"><path fill-rule="evenodd" clip-rule="evenodd" d="M26.9067 4C19.9598 4.13142 19.5039 10.1768 19.5039 10.1768C26.4867 10.7622 26.9067 4 26.9067 4ZM24.6026 17.9067C27.432 20.4423 28.1952 24.5557 26.4623 27.9305C30.9375 20.4874 29.2458 14.6332 29.2458 14.6332C19.5274 9.78257 14.0684 13.9163 14.0684 13.9163C17.9544 13.9039 21.7073 15.3256 24.6026 17.9067ZM13.6005 19.5079C16.1147 16.6708 20.2456 15.9023 23.6188 17.6441C16.1801 13.1639 10.3371 14.8484 10.3371 14.8484C5.53786 24.5855 9.61718 30.0454 9.61718 30.0454C9.60101 26.1651 11.0188 22.4144 13.6005 19.5079ZM13.4563 20.3438C11.7325 23.7182 12.5002 27.8249 15.328 30.3556C18.2172 32.9403 21.9663 34.3663 25.8502 34.3579C25.8502 34.3579 20.4031 38.4917 10.6848 33.6411C10.6848 33.6411 9.00504 27.775 13.4563 20.3438ZM30.362 18.1934C30.3771 22.0756 28.9547 25.8273 26.3667 28.7309C23.8565 31.566 19.7299 32.3346 16.3604 30.5947C23.7871 35.0749 29.6421 33.3784 29.6421 33.3784C34.4893 23.6533 30.362 18.1934 30.362 18.1934Z" fill="url(#paint0_linear_21485_163073)"></path><defs><linearGradient id="paint0_linear_21485_163073" x1="-4.00016" y1="20" x2="26.72" y2="43.0404" gradientUnits="userSpaceOnUse"><stop stop-color="#46AEFF"></stop><stop offset="1" stop-color="#3B4FE4"></stop></linearGradient></defs></svg>