<svg width="25" height="21" viewBox="0 0 25 21" fill="none" xmlns="http://www.w3.org/2000/svg" class="t-socialIcon-0-1-97"><path fill-rule="evenodd" clip-rule="evenodd" d="M9.78586 13.757C16.9222 7.26962 20.4949 4.00586 20.5048 3.96569C20.5128 3.93757 20.5178 3.90644 20.5188 3.87632C20.5188 3.72769 20.4121 3.65137 20.1928 3.65137C20.143 3.65137 15.9732 6.32263 7.68652 11.6641L9.43298 17.4395L9.78586 13.757ZM19.1398 20.7665L13.3372 16.4845L10.0846 19.5584C9.92506 19.699 9.72071 19.7784 9.50838 19.7834C9.11264 19.8175 8.74481 19.5795 8.61123 19.2039L6.31153 12.1964L0.598665 10.4089C0.255754 10.3175 0.013523 10.0122 0.000564177 9.6557C-0.0133915 9.27309 0.232827 8.92964 0.598665 8.82219C16.2101 2.94039 24.0672 0 24.1698 0C24.3822 0.0110466 24.5815 0.101428 24.7321 0.253067C24.9205 0.415752 25.0181 0.659781 24.9972 0.907827L21.0198 20.0134C20.956 20.6079 20.4357 21.0437 19.8446 20.9965C19.5914 20.9975 19.3452 20.9172 19.1398 20.7665Z" fill="#CACACA"></path></svg>